<svg width="1467" height="425" viewBox="0 0 1467 425" fill="none" xmlns="http://www.w3.org/2000/svg">
<path d="M1210.92 106.607C1223.61 97.8549 1236.31 93.4815 1249.01 93.4815C1278.97 93.4815 1302.97 102.899 1321 121.725C1339.03 140.294 1348.05 166.018 1348.05 198.895C1348.05 231.773 1339.16 257.507 1321.39 276.066C1303.36 294.635 1279.23 303.909 1249.02 303.909C1234.8 303.909 1222.1 299.536 1210.93 290.784C1202.55 283.886 1194.67 280.439 1187.31 280.439C1165.95 280.439 1149.99 302.317 1149.99 302.317V31.8228C1149.99 13.2533 1139.83 3.97385 1119.52 3.97385V0H1195.7C1205.86 0 1210.93 10.6058 1210.93 31.8228V106.602L1210.92 106.607ZM1210.92 285.617C1223.36 295.163 1236.06 299.941 1249.01 299.941C1265.52 299.941 1276.69 292.377 1282.53 277.27C1285.58 268.779 1287.1 242.656 1287.1 198.901C1287.1 155.146 1285.58 127.558 1282.53 120.137C1276.44 105.025 1265.26 97.4607 1249.01 97.4607C1236.07 97.4607 1223.36 102.234 1210.92 111.785V285.622V285.617Z" fill="#043927"/>
<path d="M1023.26 303.915C988.985 303.915 962.574 294.763 944.037 276.465C925.756 258.167 916.613 232.172 916.613 198.496C916.613 164.819 925.879 139.096 944.421 120.526C962.957 102.228 989.236 93.0767 1023.26 93.0767C1057.29 93.0767 1083.56 102.228 1102.11 120.526C1120.64 139.096 1129.91 165.075 1129.91 198.496C1129.91 231.917 1120.77 258.167 1102.48 276.465C1083.94 294.763 1057.54 303.915 1023.26 303.915ZM1023.26 299.936C1042.56 299.936 1055 292.909 1060.59 278.846C1066.17 264.522 1068.97 237.744 1068.97 198.496C1068.97 159.247 1066.17 132.458 1060.59 118.145C1055 104.093 1042.56 97.0559 1023.26 97.0559C1001.42 97.0559 988.095 105.808 983.268 123.307C979.458 137.37 977.556 162.427 977.556 198.496C977.556 234.564 979.458 259.622 983.268 273.674C988.09 291.184 1001.42 299.936 1023.26 299.936Z" fill="#043927"/>
<path d="M706.467 238.996V198.496C706.467 128.223 664.764 93.0767 591.129 93.0767C569.545 93.0767 543.709 98.9149 523.398 110.575L525.684 114.155C544.982 102.756 570.056 97.0505 591.134 97.0505C624.142 97.0505 645.534 117.612 645.534 158.715V168.66C630.802 162.023 615.569 158.715 599.83 158.715C567.328 158.715 541.428 165.943 522.13 180.39C502.831 194.841 498.068 211.488 498.068 230.313C498.068 249.138 502.895 266.115 522.316 281.233C541.743 296.34 567.579 303.904 599.824 303.904C618.361 303.904 634.106 299.003 647.053 289.181C647.559 289.181 652.557 296.516 660.762 301.907C660.762 301.907 705.785 279.422 706.467 238.98V238.996ZM599.819 299.936C583.824 299.936 571.889 295.03 564.014 285.212C557.407 276.732 554.109 258.434 554.109 230.319C554.109 207.248 556.139 192.125 560.204 184.971C567.824 170.119 581.027 162.694 599.814 162.694C615.814 162.694 631.047 166.14 645.518 173.039V237.473C645.518 252.59 645.769 268.368 646.28 284.813C634.596 294.891 619.107 299.93 599.808 299.93L599.819 299.936Z" fill="#043927"/>
<path d="M1405.99 65.1531C1414.36 65.1531 1421.54 62.0316 1427.51 55.8045C1433.47 49.5773 1436.46 42.0824 1436.46 33.3303C1436.46 24.5783 1433.47 17.0833 1427.51 10.8562C1421.54 4.61842 1414.37 1.50751 1405.99 1.50751C1397.6 1.50751 1390.43 4.61842 1384.47 10.8562C1378.5 17.0833 1375.51 24.5783 1375.51 33.3303C1375.51 42.0824 1378.5 49.5773 1384.47 55.8045C1390.43 62.0316 1397.6 65.1531 1405.99 65.1531Z" fill="#043927"/>
<path d="M1436.46 272.001V128.799C1436.46 107.582 1431.38 96.9759 1421.22 96.9759H1345.05V100.95C1365.36 100.95 1375.52 110.229 1375.52 128.799V246.139C1376.51 255.339 1379.86 263.558 1384.34 270.707C1397.84 292.281 1421.93 304.021 1446.61 303.909L1466.93 303.819V299.84C1446.61 299.84 1436.46 290.56 1436.46 271.996V272.001Z" fill="#043927"/>
<path d="M897.416 105.323C886.755 98.4248 874.564 94.9784 860.855 94.9784C842.569 94.9784 828.353 97.498 818.192 102.532C810.317 106.516 801.435 113.276 791.53 122.822L789.245 116.057C787.977 112.078 785.941 107.843 783.155 103.331C780.869 99.096 778.583 96.9706 776.297 96.9706H700.121V100.944C720.432 100.944 730.593 110.224 730.593 128.793V240.184C730.651 252.468 734.775 263.127 740.524 272.028C753.845 292.659 776.958 304.011 800.785 303.909L822.007 303.819V299.84C801.691 299.84 791.536 290.56 791.536 271.996V129.193C806.263 111.683 822.258 102.931 839.526 102.931C849.175 102.931 853.997 108.242 853.997 118.848L852.474 134.754C852.474 143.773 855.521 151.337 861.617 157.425C867.712 163.525 874.82 166.577 882.945 166.577C891.577 166.577 898.812 163.397 904.657 157.031C910.497 150.671 913.417 143.245 913.417 134.754C913.417 122.028 908.083 112.221 897.422 105.323H897.416Z" fill="#043927"/>
<path d="M554.114 22.7991L591.907 79.4398L573.013 1.50751L554.114 22.7991Z" fill="#043927"/>
<path d="M1070.85 22.7991L1033.05 79.4398L1051.95 1.50751L1070.85 22.7991Z" fill="#043927"/>
<path d="M467.585 272.092L452.352 65.2331C452.352 46.6742 462.508 37.3841 482.824 37.3841V33.4102H399.79L314.476 208.015L240.197 33.4102H155.267V37.3841C175.578 37.3841 185.738 46.6742 185.738 65.2331L170.5 272.092C169.482 290.661 159.327 299.936 140.028 299.936V303.915H204.786V299.936C184.47 299.936 174.315 291.972 174.315 276.066V272.092L189.559 65.2331L264.424 240.2C264.738 240.727 280.499 272.934 275.235 276.86H277.196C307.561 276.86 329.406 244.829 317.908 215.483C317.482 214.391 317.039 213.384 316.576 212.468L391.031 60.0713L405.566 257.523C405.619 257.965 405.689 258.349 405.731 258.823C407.628 281.366 422.499 292.702 435.5 298.338C444.275 302.141 453.78 303.739 463.28 303.776L498.046 303.909V299.93C479.126 299.93 468.971 290.651 467.575 272.087L467.585 272.092Z" fill="#043927"/>
<path d="M707.527 190.298H706.765C718.013 211.041 722.179 226.052 722.179 248.941C722.179 338.151 651.172 420.744 539.371 406.74C497.967 401.557 417.97 375.716 357.746 276.258C356.052 273.642 354.113 270.302 352.035 266.493C345.902 255.643 340.004 243.977 334.409 231.432C333.29 228.923 332.203 226.531 331.106 224.049L331.138 223.98C325.516 211.813 321.456 202.592 321.456 202.592C274.617 98.4728 245.419 31.8867 174.88 9.82811C97.3715 -14.4092 24.6319 21.1158 5.09369 30.4432C2.96244 31.4659 1.25211 32.2809 0 32.803L1.98206 37.3681C18.5632 25.7502 60.3037 12.9284 102.348 10.4727C102.348 10.4727 114.613 8.88524 131.887 10.6218C154.292 12.3158 175.018 17.9569 189.942 29.4736V29.724C191.695 30.848 193.432 32.0305 195.153 33.2824C195.153 33.2824 195.196 33.3143 195.217 33.3303C202.272 38.4654 208.985 44.6819 215.016 52.2248C253.166 95.4152 275.16 163.04 313.763 242.869C394.883 410.612 508.138 419.167 540.911 423.168C657.736 437.428 724.918 339.632 724.918 248.941C724.918 225.604 718.993 211.44 707.532 190.298H707.527Z" fill="#043927"/>
</svg>
