<svg width="577" height="577" viewBox="0 0 577 577" fill="none" xmlns="http://www.w3.org/2000/svg">
<path d="M288.723 577C447.692 577 576.562 447.834 576.562 288.5C576.562 129.166 447.692 0 288.723 0C129.753 0 0.883301 129.166 0.883301 288.5C0.883301 447.834 129.753 577 288.723 577Z" fill="#043927"/>
<path d="M560.426 272.993H559.853C568.247 288.512 571.351 299.738 571.351 316.852C571.351 383.576 518.373 445.353 434.955 434.885C404.069 431.005 344.38 411.676 299.453 337.284C298.193 335.332 296.739 332.83 295.193 329.983C290.612 321.868 286.214 313.144 282.046 303.755C281.21 301.884 280.397 300.093 279.584 298.234L279.606 298.176C275.415 289.074 272.38 282.175 272.38 282.175C237.439 204.294 215.646 154.489 163.023 137.994C105.201 119.87 50.9291 146.431 36.3505 153.41C34.7586 154.179 33.4874 154.787 32.5483 155.178L34.0257 158.598C46.394 149.909 77.544 140.324 108.912 138.476C108.912 138.476 118.062 137.294 130.946 138.591C147.666 139.865 163.126 144.078 174.258 152.698V152.882C175.563 153.72 176.857 154.604 178.14 155.545C178.14 155.545 178.174 155.568 178.186 155.579C183.454 159.425 188.458 164.073 192.959 169.709C221.418 202.01 237.829 252.595 266.631 312.306C327.156 437.778 411.65 444.171 436.101 447.167C523.263 457.831 573.39 384.69 573.39 316.852C573.39 299.393 568.969 288.799 560.414 272.993H560.426Z" fill="white"/>
<path d="M432.333 384.276L417.777 186.135C417.777 168.355 427.477 159.459 446.888 159.459V155.648H367.548L286.031 322.901L247.735 232.646L232.492 208.128L189.901 160.882L187.519 155.648H133.911V159.459C153.323 159.459 163.023 168.355 163.023 186.135L148.456 384.276C147.482 402.057 137.782 410.952 119.344 410.952V414.763H181.22V410.952C161.809 410.952 152.109 403.331 152.109 388.087V384.276L166.676 186.135L238.207 353.732C238.504 354.237 253.564 385.091 248.536 388.845H250.415C279.423 388.845 300.3 358.163 289.318 330.052C288.905 329.008 288.482 328.043 288.046 327.16L359.187 181.176L373.079 370.307C373.125 370.732 373.194 371.099 373.239 371.558C375.049 393.149 389.261 404.008 401.687 409.414C410.07 413.064 419.151 414.591 428.233 414.626L461.456 414.752V410.941C443.384 410.941 433.673 402.057 432.344 384.265L432.333 384.276Z" fill="white"/>
</svg>
